<?xml version="1.0" encoding="UTF-8" standalone="no"?>
<!-- Created with Inkscape (http://www.inkscape.org/) -->

<svg
   xmlns:dc="http://purl.org/dc/elements/1.1/"
   xmlns:cc="http://creativecommons.org/ns#"
   xmlns:rdf="http://www.w3.org/1999/02/22-rdf-syntax-ns#"
   xmlns:svg="http://www.w3.org/2000/svg"
   xmlns="http://www.w3.org/2000/svg"
   xmlns:sodipodi="http://sodipodi.sourceforge.net/DTD/sodipodi-0.dtd"
   xmlns:inkscape="http://www.inkscape.org/namespaces/inkscape"
   width="500.20001"
   height="435.86475"
   id="svg2"
   version="1.1"
   inkscape:version="0.48.5 r10040"
   sodipodi:docname="ic_calendar_light.svg">
  <defs
     id="defs4" />
  <sodipodi:namedview
     id="base"
     pagecolor="#ffffff"
     bordercolor="#666666"
     borderopacity="1.0"
     inkscape:pageopacity="0.0"
     inkscape:pageshadow="2"
     inkscape:zoom="0.98994949"
     inkscape:cx="302.34851"
     inkscape:cy="257.91008"
     inkscape:document-units="px"
     inkscape:current-layer="layer1"
     showgrid="false"
     fit-margin-bottom="0.1"
     fit-margin-left="0.1"
     fit-margin-top="0.1"
     fit-margin-right="0.1"
     inkscape:window-width="1366"
     inkscape:window-height="665"
     inkscape:window-x="0"
     inkscape:window-y="31"
     inkscape:window-maximized="1" />
  <metadata
     id="metadata7">
    <rdf:RDF>
      <cc:Work
         rdf:about="">
        <dc:format>image/svg+xml</dc:format>
        <dc:type
           rdf:resource="http://purl.org/dc/dcmitype/StillImage" />
        <dc:title />
      </cc:Work>
    </rdf:RDF>
  </metadata>
  <g
     inkscape:label="Capa 1"
     inkscape:groupmode="layer"
     id="layer1"
     transform="translate(-132.26414,-307.3149)">
    <path
       style="fill:#dcdcdc;fill-opacity:1;stroke:none"
       d="M 108.875 55.96875 C 76.445477 55.96875 50.3125 82.070477 50.3125 114.5 L 50.3125 374.15625 C 50.3125 406.58577 76.445477 432.71875 108.875 432.71875 L 395.75 432.71875 C 428.17952 432.71875 454.28125 406.58577 454.28125 374.15625 L 454.28125 114.5 C 454.28125 82.070477 428.17952 55.96875 395.75 55.96875 L 379.34375 55.96875 L 379.34375 77.40625 C 379.34375 99.123283 361.84203 116.59375 340.125 116.59375 L 323.3125 116.59375 C 301.59547 116.59375 284.125 99.123283 284.125 77.40625 L 284.125 55.96875 L 223 55.96875 L 223 77.40625 C 223 99.123283 205.52953 116.59375 183.8125 116.59375 L 167 116.59375 C 145.28297 116.59375 127.78125 99.123283 127.78125 77.40625 L 127.78125 55.96875 L 108.875 55.96875 z M 127.59375 168.53125 L 377.03125 168.53125 C 394.81708 168.53125 409.125 182.87042 409.125 200.65625 L 409.125 355.5625 C 409.125 373.34833 394.81708 387.6875 377.03125 387.6875 L 127.59375 387.6875 C 109.80792 387.6875 95.46875 373.34833 95.46875 355.5625 L 95.46875 200.65625 C 95.46875 182.87042 109.80792 168.53125 127.59375 168.53125 z "
       transform="translate(132.26414,307.3149)"
       id="rect3760" />
    <rect
       style="fill:#dcdcdc;fill-opacity:1;stroke:none"
       id="rect3777"
       width="68.968185"
       height="63.039894"
       x="258.12357"
       y="511.87869"
       ry="13.834084" />
    <rect
       ry="13.834084"
       y="511.87869"
       x="350.08115"
       height="63.039894"
       width="68.968185"
       id="rect3779"
       style="fill:#dcdcdc;fill-opacity:1;stroke:none" />
    <rect
       style="fill:#dcdcdc;fill-opacity:1;stroke:none"
       id="rect3781"
       width="68.968185"
       height="63.039894"
       x="442.03873"
       y="511.87869"
       ry="13.834084" />
    <rect
       ry="13.834084"
       y="595.93182"
       x="258.12357"
       height="63.039894"
       width="68.968185"
       id="rect3783"
       style="fill:#dcdcdc;fill-opacity:1;stroke:none" />
    <rect
       style="fill:#dcdcdc;fill-opacity:1;stroke:none"
       id="rect3785"
       width="68.968185"
       height="63.039894"
       x="350.08115"
       y="595.93182"
       ry="13.834084" />
    <rect
       ry="13.834084"
       y="595.93182"
       x="442.03873"
       height="63.039894"
       width="68.968185"
       id="rect3787"
       style="fill:#dcdcdc;fill-opacity:1;stroke:none" />
    <rect
       ry="30.556278"
       y="314.12164"
       x="275.81705"
       height="90"
       width="62.561867"
       id="rect3790"
       style="fill:#dcdcdc;fill-opacity:1;stroke:none" />
    <rect
       style="fill:#dcdcdc;fill-opacity:1;stroke:none"
       id="rect3794"
       width="62.561867"
       height="90"
       x="432.22501"
       y="314.12164"
       ry="30.556278" />
  </g>
</svg>
