<?xml version="1.0" encoding="UTF-8" standalone="no"?>
<!-- Created with Inkscape (http://www.inkscape.org/) -->

<svg
   xmlns:dc="http://purl.org/dc/elements/1.1/"
   xmlns:cc="http://creativecommons.org/ns#"
   xmlns:rdf="http://www.w3.org/1999/02/22-rdf-syntax-ns#"
   xmlns:svg="http://www.w3.org/2000/svg"
   xmlns="http://www.w3.org/2000/svg"
   xmlns:sodipodi="http://sodipodi.sourceforge.net/DTD/sodipodi-0.dtd"
   xmlns:inkscape="http://www.inkscape.org/namespaces/inkscape"
   width="256"
   height="256"
   id="svg2"
   version="1.1"
   inkscape:version="0.48.5 r10040"
   sodipodi:docname="Documento nuevo 1">
  <defs
     id="defs4" />
  <sodipodi:namedview
     id="base"
     pagecolor="#ffffff"
     bordercolor="#666666"
     borderopacity="1.0"
     inkscape:pageopacity="0.0"
     inkscape:pageshadow="2"
     inkscape:zoom="1.4"
     inkscape:cx="186.6006"
     inkscape:cy="127.66964"
     inkscape:document-units="px"
     inkscape:current-layer="layer1"
     showgrid="false"
     inkscape:window-width="1366"
     inkscape:window-height="665"
     inkscape:window-x="0"
     inkscape:window-y="31"
     inkscape:window-maximized="1" />
  <metadata
     id="metadata7">
    <rdf:RDF>
      <cc:Work
         rdf:about="">
        <dc:format>image/svg+xml</dc:format>
        <dc:type
           rdf:resource="http://purl.org/dc/dcmitype/StillImage" />
        <dc:title></dc:title>
      </cc:Work>
    </rdf:RDF>
  </metadata>
  <g
     inkscape:label="Capa 1"
     inkscape:groupmode="layer"
     id="layer1"
     transform="translate(0,-796.3622)">
    <g
       id="g3784"
       transform="matrix(0.36321852,0,0,0.36321852,-359.44514,767.96432)">
      <path
         transform="translate(4.2857666,0)"
         d="m 1542.8572,263.79074 c 0,83.63169 -67.7969,151.42857 -151.4286,151.42857 -83.6317,0 -151.4286,-67.79688 -151.4286,-151.42857 0,-83.63169 67.7969,-151.42857 151.4286,-151.42857 83.6317,0 151.4286,67.79688 151.4286,151.42857 z"
         sodipodi:ry="151.42857"
         sodipodi:rx="151.42857"
         sodipodi:cy="263.79074"
         sodipodi:cx="1391.4286"
         id="path2996"
         style="fill:#dcdcdc;fill-opacity:1;stroke:none"
         sodipodi:type="arc" />
      <path
         id="rect2998"
         d="m 1193.875,369.5 c 37.6849,23.56037 62.75,65.40553 62.75,113.125 0,72.82578 -58.3916,132.00981 -130.9062,133.3125 l 0,127.84375 540,0 0,-374.28125 -121.5938,0 c 0,0 -44.7176,75.08628 -149.4688,76 -104.7512,0.91372 -147.2187,-76 -147.2187,-76 l -53.5625,0 z"
         style="fill:#dcdcdc;fill-opacity:1;stroke:none"
         inkscape:connector-curvature="0" />
      <path
         sodipodi:type="arc"
         style="fill:#dcdcdc;fill-opacity:1;stroke:none"
         id="path3777"
         sodipodi:cx="1745.5436"
         sodipodi:cy="34.128418"
         sodipodi:rx="125.25892"
         sodipodi:ry="125.25892"
         d="m 1870.8025,34.128418 c 0,69.178592 -56.0803,125.258922 -125.2589,125.258922 -69.1786,0 -125.2589,-56.08033 -125.2589,-125.258922 0,-69.178591 56.0803,-125.258919 125.2589,-125.258919 69.1786,0 125.2589,56.080328 125.2589,125.258919 z"
         transform="matrix(0.82501198,0,0,0.82501198,-318.80528,452.4797)" />
      <path
         inkscape:connector-curvature="0"
         id="path3780"
         d="m 1121.8074,410.8494 0,147.48227"
         style="fill:none;stroke:#9d9d9d;stroke-width:20;stroke-linecap:butt;stroke-linejoin:miter;stroke-miterlimit:4;stroke-opacity:1;stroke-dasharray:none" />
      <path
         style="fill:none;stroke:#9d9d9d;stroke-width:20;stroke-linecap:butt;stroke-linejoin:miter;stroke-miterlimit:4;stroke-opacity:1;stroke-dasharray:none"
         d="m 1195.5485,484.59053 -147.4823,10e-6"
         id="path3782"
         inkscape:connector-curvature="0" />
    </g>
  </g>
</svg>
