<?xml version="1.0" encoding="UTF-8" standalone="no"?>
<!-- Created with Inkscape (http://www.inkscape.org/) -->

<svg
   xmlns:dc="http://purl.org/dc/elements/1.1/"
   xmlns:cc="http://creativecommons.org/ns#"
   xmlns:rdf="http://www.w3.org/1999/02/22-rdf-syntax-ns#"
   xmlns:svg="http://www.w3.org/2000/svg"
   xmlns="http://www.w3.org/2000/svg"
   xmlns:sodipodi="http://sodipodi.sourceforge.net/DTD/sodipodi-0.dtd"
   xmlns:inkscape="http://www.inkscape.org/namespaces/inkscape"
   width="256"
   height="256"
   id="svg2"
   version="1.1"
   inkscape:version="0.48.5 r10040"
   sodipodi:docname="ic_new_user.svg"
   inkscape:export-filename="/home/roman/Imágenes/ic_new_user.png"
   inkscape:export-xdpi="90"
   inkscape:export-ydpi="90">
  <defs
     id="defs4" />
  <sodipodi:namedview
     id="base"
     pagecolor="#ffffff"
     bordercolor="#666666"
     borderopacity="1.0"
     inkscape:pageopacity="0.0"
     inkscape:pageshadow="2"
     inkscape:zoom="0.98994949"
     inkscape:cx="230.16973"
     inkscape:cy="57.918691"
     inkscape:document-units="px"
     inkscape:current-layer="layer1"
     showgrid="false"
     inkscape:window-width="1366"
     inkscape:window-height="665"
     inkscape:window-x="0"
     inkscape:window-y="31"
     inkscape:window-maximized="1" />
  <metadata
     id="metadata7">
    <rdf:RDF>
      <cc:Work
         rdf:about="">
        <dc:format>image/svg+xml</dc:format>
        <dc:type
           rdf:resource="http://purl.org/dc/dcmitype/StillImage" />
        <dc:title></dc:title>
      </cc:Work>
    </rdf:RDF>
  </metadata>
  <g
     inkscape:label="Capa 1"
     inkscape:groupmode="layer"
     id="layer1"
     transform="translate(0,-796.3622)">
    <path
       sodipodi:type="arc"
       style="fill:#dcdcdc;fill-opacity:1;stroke:none"
       id="path2996"
       sodipodi:cx="1391.4286"
       sodipodi:cy="263.79074"
       sodipodi:rx="151.42857"
       sodipodi:ry="151.42857"
       d="m 1542.8572,263.79074 a 151.42857,151.42857 0 1 1 -302.8572,0 151.42857,151.42857 0 1 1 302.8572,0 z"
       transform="matrix(0.36321852,0,0,0.36321852,-377.08137,765.94401)" />
    <path
       style="fill:#dcdcdc;fill-opacity:1;stroke:none"
       d="m 30.275852,900.12314 0,89.53125 c -0.01054,2e-4 -0.02071,-1.9e-4 -0.03125,0 l 0,46.43751 196.124998,0 0,-135.93751 -44.15625,0 c 0,0 -16.23367,27.26187 -54.28125,27.59375 -38.047568,0.33188 -53.468748,-27.59375 -53.468748,-27.59375 l -0.5,0 0,-0.0312 -43.6875,0 z"
       id="rect2998"
       inkscape:connector-curvature="0" />
  </g>
</svg>
