<?xml version="1.0" encoding="UTF-8" standalone="no"?>
<!-- Created with Inkscape (http://www.inkscape.org/) -->

<svg
   xmlns:dc="http://purl.org/dc/elements/1.1/"
   xmlns:cc="http://creativecommons.org/ns#"
   xmlns:rdf="http://www.w3.org/1999/02/22-rdf-syntax-ns#"
   xmlns:svg="http://www.w3.org/2000/svg"
   xmlns="http://www.w3.org/2000/svg"
   xmlns:sodipodi="http://sodipodi.sourceforge.net/DTD/sodipodi-0.dtd"
   xmlns:inkscape="http://www.inkscape.org/namespaces/inkscape"
   width="192"
   height="192"
   id="svg2"
   version="1.1"
   inkscape:version="0.48.5 r10040"
   sodipodi:docname="libreteachernotebook.svg"
   inkscape:export-filename="/home/roman/Imágenes/libreteachernotebook.png"
   inkscape:export-xdpi="90"
   inkscape:export-ydpi="90">
  <defs
     id="defs4" />
  <sodipodi:namedview
     id="base"
     pagecolor="#ffffff"
     bordercolor="#666666"
     borderopacity="1.0"
     inkscape:pageopacity="0.0"
     inkscape:pageshadow="2"
     inkscape:zoom="2"
     inkscape:cx="119.72251"
     inkscape:cy="99.443169"
     inkscape:document-units="px"
     inkscape:current-layer="layer1"
     showgrid="true"
     inkscape:window-width="1366"
     inkscape:window-height="665"
     inkscape:window-x="0"
     inkscape:window-y="31"
     inkscape:window-maximized="1"
     showguides="true"
     inkscape:guide-bbox="true">
    <inkscape:grid
       type="xygrid"
       id="grid2985"
       empspacing="5"
       visible="true"
       enabled="true"
       snapvisiblegridlinesonly="true" />
    <sodipodi:guide
       orientation="0,1"
       position="105,-10"
       id="guide3837" />
  </sodipodi:namedview>
  <metadata
     id="metadata7">
    <rdf:RDF>
      <cc:Work
         rdf:about="">
        <dc:format>image/svg+xml</dc:format>
        <dc:type
           rdf:resource="http://purl.org/dc/dcmitype/StillImage" />
        <dc:title></dc:title>
      </cc:Work>
    </rdf:RDF>
  </metadata>
  <g
     inkscape:label="Capa 1"
     inkscape:groupmode="layer"
     id="layer1"
     transform="translate(0,-860.3622)">
    <path
       style="fill:#ffffff;fill-opacity:1;stroke:#000000;stroke-width:4.46282053000000012;stroke-linecap:round;stroke-miterlimit:4;stroke-opacity:1"
       d="m 3.5260279,864.08507 148.7569921,0 c 0,0 7.51883,7.06524 11.21144,10.66691 2.51438,2.45259 7.45098,7.45078 7.45098,7.45078 l 8.87584,9.50949 9.24193,9.90178 0,148.00837 -185.5371821,0 z"
       id="rect3781"
       inkscape:connector-curvature="0"
       sodipodi:nodetypes="ccscccccc" />
    <path
       style="fill:none;stroke:#009600;stroke-width:3.95833325;stroke-linecap:butt;stroke-linejoin:miter;stroke-miterlimit:4;stroke-opacity:1;stroke-dasharray:none"
       d="m 181.08403,951.77152 -21.55984,-7.35211 -57.22805,-58.02207 14.50559,-14.30699 57.22805,58.02203 z"
       id="path2987"
       inkscape:connector-curvature="0"
       sodipodi:nodetypes="cccccc" />
    <path
       style="fill:none;stroke:#009600;stroke-width:2.03740573px;stroke-linecap:butt;stroke-linejoin:miter;stroke-opacity:1"
       d="m 158.19607,943.07281 4.33156,-1.4108 1.47082,-4.31182 4.33178,-1.41113 1.47017,-4.31182 4.33195,-1.41075"
       id="path2989"
       inkscape:connector-curvature="0" />
    <path
       style="fill:#009600;fill-opacity:1;stroke:#009600;stroke-width:3.95833325;stroke-linecap:butt;stroke-linejoin:miter;stroke-miterlimit:4;stroke-opacity:1;stroke-dasharray:none"
       d="m 102.29614,886.39734 c 0,0 -4.292067,-4.35179 2.96061,-11.50529 7.2527,-7.15349 11.54498,-2.8017 11.54498,-2.8017"
       id="path2991"
       inkscape:connector-curvature="0"
       sodipodi:nodetypes="csc" />
    <text
       xml:space="preserve"
       style="font-size:31.99999809px;font-style:normal;font-weight:bold;line-height:125%;letter-spacing:0px;word-spacing:0px;fill:#000000;fill-opacity:1;stroke:none;font-family:Sans;-inkscape-font-specification:Sans Bold"
       x="11.675053"
       y="926.90894"
       id="text3765"
       sodipodi:linespacing="125%"><tspan
         sodipodi:role="line"
         x="11.675053"
         y="926.90894"
         id="tspan3769"
         style="font-size:36px;fill:#009600;fill-opacity:1">Libre</tspan></text>
    <text
       xml:space="preserve"
       style="font-size:29.80392075px;font-style:normal;font-weight:normal;line-height:125%;letter-spacing:0px;word-spacing:0px;fill:#000000;fill-opacity:1;stroke:none;font-family:Sans"
       x="15.106424"
       y="991.61462"
       id="text3773"
       sodipodi:linespacing="125%"><tspan
         style="font-size:36px"
         sodipodi:role="line"
         id="tspan3775"
         x="15.106424"
         y="991.61462">Teacher</tspan></text>
    <text
       xml:space="preserve"
       style="font-size:29.80392075px;font-style:normal;font-weight:normal;line-height:125%;letter-spacing:0px;word-spacing:0px;fill:#000000;fill-opacity:1;stroke:none;font-family:Sans"
       x="11.565327"
       y="1036.1323"
       id="text3777"
       sodipodi:linespacing="125%"><tspan
         style="font-size:36px"
         sodipodi:role="line"
         id="tspan3779"
         x="11.565327"
         y="1036.1323">Notebook</tspan></text>
    <path
       style="fill:#009600;fill-opacity:1;stroke:#009600;stroke-width:3;stroke-linecap:round;stroke-miterlimit:4;stroke-opacity:1;stroke-dasharray:none"
       id="path3869"
       d="m 180.10099,958.34428 c -1.38007,0.1089 -2.69775,0.5828 -4.04358,0.90044 -1.44381,0.42863 -2.92132,0.69548 -4.41569,0.832 -1.01007,0.0885 -2.02381,0.0876 -3.03654,0.0907 -0.88038,-0.004 -1.76082,-0.002 -2.6412,-0.007 -0.96127,0.002 -1.92246,-0.002 -2.88367,-0.0133 -1.16703,-10e-4 -2.33398,-0.003 -3.501,0.005 -0.99088,-0.0363 -1.99221,0.11515 -2.96191,-0.12228 -1.06825,-0.40136 -2.14057,-0.79579 -3.25028,-1.05305 -1.06043,-0.39732 -2.21237,-0.38387 -3.27747,-0.73038 -1.0067,-0.30707 -2.00897,-0.6317 -3.01972,-0.92416 -1.34368,-0.29726 -2.66694,-0.67264 -3.99035,-1.05326 -1.65995,-0.41482 -3.34965,-0.6663 -5.0374,-0.92242 -1.36457,-0.20593 -2.74112,-0.2348 -4.10351,-0.45013 -0.91523,-0.13454 -1.8037,-0.47362 -2.65895,-0.8322 -0.96411,-0.25248 -1.91093,-0.56438 -2.86336,-0.86021 -0.98581,-0.22701 -1.93357,-0.59026 -2.89158,-0.9241 -0.96837,-0.30564 -1.96489,-0.48801 -2.93471,-0.7893 -0.17548,-0.0459 -0.35425,-0.0798 -0.52642,-0.13765 -0.39027,-0.13103 -0.76184,-0.31667 -1.14941,-0.4561 -0.54737,-0.1969 -1.11106,-0.33358 -1.66348,-0.51399 -1.00632,-0.3029 -2.04347,-0.46655 -3.05956,-0.73194 -1.07529,-0.3362 -2.2116,-0.3091 -3.29136,-0.5958 -1.1276,-0.29818 -2.27784,-0.47277 -3.41659,-0.71535 -0.90755,-0.19459 -1.83213,-0.25085 -2.75593,-0.2785 -1.00054,-0.1623 -2.00689,-0.27239 -3.01768,-0.332 -0.92126,-0.18705 -1.85019,-0.30328 -2.78626,-0.36704 -1.100473,0.0445 -2.143445,-0.32419 -3.212911,-0.54016 -0.956572,-0.17555 -1.928173,-0.21644 -2.897251,-0.23682 -0.881591,-0.009 -1.763219,-0.007 -2.644828,-0.002 -0.876546,0.004 -1.75311,-6e-5 -2.629664,6e-5 -0.970821,10e-4 -1.94162,-0.002 -2.912453,-0.005 -1.085073,-0.0436 -2.157482,0.14429 -3.236421,0.23318 -1.303499,0.25763 -2.63103,0.30768 -3.944315,0.48424 -1.174558,0.17646 -2.356075,0.30518 -3.541909,0.35736 -1.079053,0.16528 -2.130418,0.49422 -3.193992,0.74499 -1.149807,0.23974 -2.320926,0.32428 -3.482599,0.48556 -1.038218,0.16225 -2.055468,0.4145 -3.100627,0.54228 -0.635599,0.14281 -1.197423,0.50314 -1.808363,0.71187 -0.271897,0.0929 -0.753242,0.18928 -1.03104,0.24982 -1.027183,0.14165 -2.052975,0.29104 -3.082554,0.41813 -1.03646,0.14873 -1.959709,0.65967 -2.948582,0.98272 -0.868463,0.31476 -1.766099,0.53811 -2.661488,0.75065 -0.88964,0.15151 -1.76973,0.32886 -2.59556,0.71285 -0.86406,0.3311 -1.758514,0.62768 -2.663167,0.81973 -1.045784,0.3306 -2.131278,0.44736 -3.217307,0.51967 -0.990465,0.18928 -1.98658,0.31454 -2.990839,0.38585 -0.9373,0.35187 -1.886587,0.57067 -2.876536,0.66601 -1.154393,0.0479 -2.294483,0.23478 -3.443945,0.34882 -1.033863,0.24909 -2.084384,0.37247 -3.142146,0.43702 -1.025304,0.066 -2.052473,0.0554 -3.079094,0.0601 -0.978819,-5.8e-4 -1.957629,5.9e-4 -2.936446,7.9e-4 -0.885438,0.003 -1.770851,-2.3e-4 -2.656294,0.003 -1.048336,-0.14061 -2.071884,-0.47106 -3.057442,-0.8614 -0.794377,-0.37733 -1.630755,-0.62712 -2.449255,-0.93374 -0.965115,-0.45435 -1.72195,-1.24433 -2.433594,-2.03764 -0.816816,-0.8973 -1.543416,-1.87515 -2.30326,-2.82325 -0.732774,-0.80684 -1.358444,-1.68927 -1.883685,-2.65165 -0.458633,-0.81075 -0.827258,-1.67588 -1.202372,-2.53137 -0.05216,-0.13759 -0.104323,-0.27519 -0.156485,-0.41279 0,0 4.533014,-2.61583 4.533014,-2.61583 l 0,0 c 0.04558,0.12968 0.09116,0.25935 0.136735,0.38904 0.356913,0.84654 0.724267,1.69473 1.178691,2.49008 0.497162,0.93773 1.075037,1.81158 1.792919,2.5875 0.76883,0.92883 1.463095,1.92243 2.295393,2.79418 0.6762,0.73322 1.403245,1.44472 2.343389,1.79072 0.824422,0.28163 1.618895,0.63037 2.424873,0.96317 0.958739,0.34959 1.949187,0.68239 2.974769,0.69129 0.882274,0.003 1.764528,3.8e-4 2.646792,0.005 0.974866,0.002 1.949733,0.008 2.924599,0.005 1.017484,-0.002 2.035707,-0.017 3.051338,-0.0852 1.05039,-0.0949 2.084764,-0.27935 3.126533,-0.44202 1.147004,-0.12114 2.289802,-0.27909 3.44043,-0.36157 0.988775,-0.15584 1.929991,-0.48942 2.913847,-0.66371 0.993104,-0.0847 1.974617,-0.25284 2.964402,-0.3679 1.081829,-0.10488 2.149409,-0.28461 3.193698,-0.60485 0.884809,-0.24948 1.771328,-0.50725 2.6175,-0.87742 0.862301,-0.30146 1.753286,-0.46673 2.641917,-0.66113 0.882418,-0.24139 1.777045,-0.43795 2.631164,-0.78006 0.981813,-0.35648 1.942064,-0.79279 2.991927,-0.88751 1.019026,-0.14669 2.045948,-0.24991 3.053545,-0.46711 0.974705,-0.27335 1.883574,-0.75771 2.886473,-0.92608 1.027418,-0.14744 2.035655,-0.40514 3.067579,-0.52142 1.154332,-0.16345 2.323293,-0.23477 3.456659,-0.53163 1.076548,-0.27814 2.157023,-0.59289 3.266839,-0.67956 1.164389,-0.0721 2.324993,-0.18623 3.480298,-0.3558 1.326045,-0.15374 2.654984,-0.27304 3.974331,-0.48635 1.091438,-0.11032 2.181452,-0.26357 3.281061,-0.20876 0.975361,-0.003 1.950684,-0.006 2.926035,-0.005 0.879274,-9.1e-4 1.758539,-0.006 2.637808,-0.007 0.881687,10e-4 1.763642,-0.006 2.645014,0.0228 0.984189,0.0388 1.967362,0.11595 2.933892,0.32434 1.05033,0.23775 2.09264,0.5044 3.17713,0.47793 0.93736,0.0694 1.8601,0.23648 2.79094,0.36252 1.00981,0.0807 2.01092,0.23537 3.02062,0.31267 0.93651,0.0515 1.87006,0.14108 2.78546,0.36433 1.13308,0.24661 2.27448,0.44914 3.4016,0.72563 1.10342,0.17968 2.21784,0.30165 3.29915,0.60692 1.03428,0.23147 2.08524,0.40538 3.09013,0.75754 1.11506,0.35863 2.21147,0.77562 3.33852,1.08907 0.98076,0.26526 1.97573,0.47743 2.93739,0.81394 0.96342,0.3138 1.91875,0.65245 2.8988,0.90719 0.96303,0.30994 1.93657,0.57976 2.90176,0.88061 0.83907,0.32073 1.6818,0.64632 2.57664,0.75084 1.33337,0.21839 2.68552,0.27505 4.01715,0.51154 1.71088,0.28171 3.43186,0.51153 5.11569,0.94558 1.32428,0.39545 2.66722,0.7056 4.00684,1.03901 1.01656,0.29283 2.03654,0.57167 3.04271,0.90164 1.081,0.24622 2.18266,0.39877 3.24514,0.73408 1.10113,0.28384 2.16224,0.69591 3.25554,1.00691 0.9653,0.0954 1.93834,0.0307 2.90709,0.0532 1.16294,0.008 2.3258,0.005 3.48874,0.005 0.97175,-0.0104 1.94348,-0.0151 2.91527,-0.009 0.8798,-0.002 1.75961,0.008 2.63942,0.006 0.98973,-2.5e-4 1.98073,-0.0121 2.96738,-0.10087 1.46175,-0.16046 2.90153,-0.44382 4.32045,-0.84615 1.41015,-0.3534 2.80488,-0.83454 4.26323,-0.91664 0,0 -4.24222,3.19838 -4.24222,3.19838 z"
       inkscape:connector-curvature="0" />
  </g>
</svg>
